<svg width="20" height="21" viewBox="0 0 20 21" fill="none" xmlns="http://www.w3.org/2000/svg">
<path fill-rule="evenodd" clip-rule="evenodd" d="M1.15468 6.70689H2.31272V6.43875C2.31272 6.08011 2.38478 5.73823 2.51383 5.42651C2.64957 5.10307 2.84565 4.80979 3.09201 4.56511C3.33669 4.32043 3.62997 4.12267 3.95341 3.98693C4.26513 3.85621 4.60701 3.78415 4.96564 3.78415H9.57097V3.76068V2.54232C9.49556 2.5155 9.42517 2.48031 9.35646 2.44176C9.26094 2.38478 9.17211 2.31607 9.09502 2.23898C8.97436 2.11832 8.87716 1.97419 8.81012 1.81331C8.74644 1.65913 8.71125 1.48818 8.71125 1.31222C8.71125 1.13457 8.74644 0.965309 8.81012 0.811128C8.87716 0.650243 8.97436 0.504441 9.09502 0.383777C9.21569 0.263114 9.35981 0.165913 9.5207 0.0988771C9.67488 0.0335177 9.84582 0 10.0218 0C10.1978 0 10.3687 0.0351936 10.5229 0.0988771C10.6838 0.165913 10.8296 0.263114 10.9502 0.383777C11.0709 0.504441 11.1681 0.648567 11.2351 0.811128C11.2988 0.965309 11.334 1.13625 11.334 1.31222C11.334 1.48986 11.2988 1.65913 11.2351 1.81331C11.1681 1.97419 11.0709 2.11999 10.9502 2.23898L10.9435 2.24568C10.8664 2.3211 10.781 2.38813 10.6871 2.44344C10.6184 2.48366 10.5463 2.51885 10.4726 2.54399V3.76236V3.78582H15.0779C15.4366 3.78582 15.7784 3.85788 16.0902 3.9886C16.4153 4.12435 16.7069 4.32043 16.9516 4.56678C17.1962 4.81146 17.394 5.10474 17.5297 5.42819C17.6605 5.74158 17.7309 6.08178 17.7309 6.44042V6.70856H18.847C19.0012 6.70856 19.152 6.73873 19.2878 6.79571C19.4302 6.85437 19.5559 6.93984 19.6615 7.04709L19.6682 7.0538C19.7721 7.15938 19.8559 7.28339 19.9129 7.42249C19.9698 7.55991 20 7.70739 20 7.86325V10.9435C20 11.0977 19.9698 11.2485 19.9129 11.3843C19.8542 11.5251 19.7687 11.6524 19.6615 11.758C19.4537 11.9658 19.1637 12.0965 18.8453 12.0965H17.7275C17.7225 12.4401 17.6504 12.7702 17.5247 13.0719C17.389 13.397 17.1929 13.6886 16.9465 13.9333C16.7019 14.178 16.4086 14.3757 16.0851 14.5115C15.7717 14.6422 15.4315 14.7126 15.0729 14.7126H13.2998V19.1604H16.0952C16.1103 19.1369 16.1254 19.1118 16.1421 19.0883C16.1756 19.0397 16.2125 18.9961 16.2527 18.9542C16.3399 18.8671 16.4454 18.795 16.5644 18.7464C16.6784 18.6995 16.8024 18.6744 16.9315 18.6744C17.0588 18.6744 17.1862 18.6995 17.2985 18.7464C17.4175 18.795 17.5214 18.8671 17.6102 18.9542C17.6973 19.0414 17.7694 19.147 17.818 19.266C17.8649 19.3799 17.8901 19.5039 17.8901 19.633C17.8901 19.762 17.8632 19.8844 17.818 20C17.7694 20.119 17.6973 20.2246 17.6102 20.3117C17.523 20.3989 17.4175 20.4709 17.2985 20.5195C17.1845 20.5664 17.0605 20.5916 16.9315 20.5916C16.8058 20.5916 16.6851 20.5681 16.5711 20.5212L16.5644 20.5195C16.4454 20.4709 16.3415 20.3989 16.2527 20.3117C16.1991 20.2581 16.1505 20.1944 16.1103 20.129C16.0885 20.0922 16.0667 20.052 16.0516 20.0117H12.8725C12.7535 20.0117 12.6479 19.9631 12.5691 19.886C12.4887 19.8073 12.4418 19.7 12.4418 19.581V14.7126H10.362V18.7733C10.3938 18.79 10.4257 18.8068 10.4558 18.8269C10.5128 18.8621 10.5665 18.9073 10.6134 18.9526C10.7022 19.0414 10.7726 19.1453 10.8212 19.2643C10.8681 19.3782 10.8932 19.5023 10.8932 19.6313C10.8932 19.757 10.8698 19.8777 10.8229 19.9916L10.8212 19.9983C10.7726 20.1173 10.7005 20.2212 10.6134 20.31C10.5262 20.3972 10.4206 20.4692 10.3017 20.5178C10.1877 20.5648 10.0637 20.5899 9.93464 20.5899C9.8056 20.5899 9.68158 20.5631 9.56762 20.5178C9.44864 20.4692 9.34305 20.3972 9.25591 20.31C9.16876 20.2229 9.0967 20.1173 9.0481 19.9983C9.00285 19.8844 8.97604 19.7603 8.97604 19.6313C8.97604 19.5056 8.9995 19.3849 9.04642 19.271L9.0481 19.2643C9.0967 19.1453 9.16876 19.0414 9.25591 18.9526C9.30116 18.9056 9.35311 18.8654 9.40841 18.8302L9.41512 18.8252C9.44528 18.8084 9.47713 18.7917 9.50897 18.7749V14.7126H6.7337V16.9532C6.7337 17.0722 6.6851 17.1778 6.60801 17.2549C6.52924 17.3337 6.42366 17.3806 6.30468 17.3806H4.33719C4.3221 17.4108 4.30535 17.4376 4.28691 17.4677C4.25339 17.518 4.21485 17.5666 4.1696 17.6102L4.16122 17.6169C4.07407 17.704 3.96849 17.7761 3.84951 17.8247C3.73555 17.8716 3.61153 17.8968 3.48249 17.8968C3.3568 17.8968 3.23613 17.8716 3.12217 17.8264L3.11547 17.8247C2.99648 17.7761 2.89258 17.704 2.80375 17.6169C2.71661 17.5297 2.64455 17.4242 2.59594 17.3052C2.54902 17.1912 2.52388 17.0672 2.52388 16.9382C2.52388 16.8108 2.5507 16.6851 2.59594 16.5695C2.64455 16.4505 2.71661 16.3449 2.80375 16.2578C2.89425 16.1723 3.00318 16.1002 3.12217 16.0516C3.23613 16.0047 3.36015 15.9796 3.48919 15.9796C3.61991 15.9796 3.74393 16.0064 3.85621 16.0516C3.97017 16.1002 4.07407 16.1689 4.15954 16.2561L4.16625 16.2611C4.21485 16.3097 4.2601 16.365 4.29697 16.4237C4.3154 16.4555 4.33551 16.489 4.35227 16.5259H5.879V14.7126H4.96732C4.60868 14.7126 4.2668 14.6405 3.95509 14.5115C3.62997 14.3757 3.33836 14.1797 3.09368 13.9333C2.84733 13.6886 2.64957 13.3953 2.51383 13.0719C2.38813 12.7702 2.31775 12.4401 2.31272 12.0965H1.15468C1.0005 12.0965 0.849673 12.0664 0.713927 12.0094C0.571477 11.9507 0.445785 11.8653 0.340204 11.758L0.333501 11.7513C0.229596 11.6457 0.145802 11.5217 0.0888219 11.3826C0.0301659 11.2469 0 11.096 0 10.9418V7.86157C0 7.70739 0.0301659 7.55656 0.0888219 7.42081C0.147478 7.28004 0.232948 7.15267 0.340204 7.04709C0.445785 6.94151 0.573152 6.85437 0.713927 6.79571C0.849673 6.73873 0.998827 6.70689 1.15468 6.70689ZM7.65209 11.6625C7.62862 11.644 7.61019 11.6256 7.59175 11.6021C7.53813 11.5368 7.50964 11.4614 7.50796 11.386C7.50628 11.3089 7.53142 11.2334 7.5817 11.1664C7.60013 11.143 7.61857 11.1228 7.64371 11.1027C7.72918 11.0323 7.84146 10.9955 7.95207 10.9938C8.06268 10.9921 8.17329 11.024 8.26211 11.091C8.56544 11.3239 8.86375 11.4932 9.16038 11.6055C9.45366 11.7161 9.74359 11.7681 10.0302 11.7647C10.3184 11.7614 10.61 11.701 10.9083 11.5887C11.21 11.4748 11.5116 11.3038 11.82 11.0843C11.9105 11.0189 12.0228 10.9904 12.1334 10.9955C12.244 11.0005 12.3546 11.039 12.4384 11.1128C12.4602 11.1329 12.4786 11.153 12.4971 11.1781C12.5457 11.2469 12.5691 11.3239 12.5641 11.401C12.5591 11.4781 12.5289 11.5519 12.4736 11.6156C12.4535 11.6373 12.4317 11.6574 12.4049 11.6759C12.0194 11.9541 11.6323 12.1652 11.2385 12.311C10.8446 12.4552 10.4458 12.5323 10.0419 12.5373C9.63633 12.5423 9.2358 12.4736 8.83694 12.3295C8.44143 12.187 8.0476 11.9658 7.66047 11.6692L7.65209 11.6625ZM6.63818 6.68343C6.73538 6.68343 6.83426 6.69348 6.92643 6.71192C7.02028 6.73203 7.11413 6.75884 7.20295 6.79571C7.29345 6.83258 7.38059 6.8795 7.45936 6.93313C7.53813 6.98508 7.61019 7.04374 7.67555 7.1091L7.6856 7.11748C7.75432 7.18619 7.81632 7.25993 7.86995 7.34205L7.8733 7.34708C7.92526 7.42584 7.9705 7.50964 8.00737 7.60013C8.04424 7.68896 8.07273 7.7828 8.09117 7.87665C8.1096 7.9705 8.12133 8.06771 8.12133 8.16491C8.12133 8.26211 8.11128 8.36098 8.09117 8.45316C8.07273 8.54701 8.04424 8.63918 8.00737 8.73136C7.9705 8.82185 7.92358 8.909 7.86995 8.98777C7.70739 9.23244 7.47444 9.42182 7.20295 9.53243C7.11413 9.5693 7.02028 9.59779 6.92475 9.6179C6.8309 9.63633 6.7337 9.64471 6.6365 9.64471C6.5393 9.64471 6.44042 9.63466 6.34825 9.6179C6.2544 9.59779 6.16055 9.57097 6.07005 9.53243C5.97955 9.49556 5.89241 9.44863 5.81197 9.39501C5.72817 9.3397 5.65443 9.27769 5.5874 9.21066C5.51869 9.14195 5.45668 9.06821 5.40305 8.98609L5.3997 8.98106C5.34775 8.9023 5.3025 8.8185 5.26563 8.728C5.22876 8.63918 5.20027 8.54533 5.18016 8.45148C5.16172 8.35763 5.15334 8.26043 5.15334 8.16323C5.15334 8.06603 5.1634 7.96715 5.18016 7.87498C5.20027 7.78113 5.22708 7.68728 5.26563 7.59846C5.3025 7.50796 5.34942 7.42081 5.40305 7.34205C5.45835 7.25825 5.52036 7.18451 5.5874 7.11748C5.65611 7.04877 5.72985 6.98676 5.81197 6.93313L5.81699 6.92978C5.89576 6.87783 5.97955 6.83258 6.07005 6.79571C6.15887 6.75884 6.25272 6.73035 6.34657 6.71192C6.4421 6.69348 6.5393 6.68343 6.63818 6.68343ZM13.4071 6.68343C13.5043 6.68343 13.6032 6.69348 13.6953 6.71192C13.7892 6.73203 13.883 6.75884 13.9718 6.79571C14.0623 6.83258 14.1495 6.8795 14.2283 6.93313C14.3053 6.98508 14.3757 7.04206 14.4411 7.10742C14.4444 7.11078 14.4495 7.11413 14.4528 7.11748C14.5215 7.18619 14.5835 7.25993 14.6372 7.34205L14.6405 7.34708C14.6925 7.42584 14.7377 7.50964 14.7746 7.60013C14.8115 7.68896 14.84 7.7828 14.8601 7.87665C14.8785 7.9705 14.8869 8.06771 14.8869 8.16491C14.8869 8.26211 14.8768 8.36098 14.8601 8.45316C14.84 8.54701 14.8131 8.64086 14.7746 8.73136C14.7377 8.82185 14.6908 8.909 14.6372 8.98777C14.5819 9.07156 14.5199 9.1453 14.4528 9.21233C14.3841 9.28105 14.3104 9.34305 14.2283 9.39668L14.2232 9.40003C14.1428 9.45199 14.0607 9.49723 13.9702 9.5341C13.8813 9.57097 13.7875 9.59946 13.692 9.61957C13.5981 9.63801 13.5009 9.64639 13.4037 9.64639C13.3065 9.64639 13.2076 9.63633 13.1155 9.61957C13.0216 9.59946 12.9278 9.57265 12.8373 9.5341C12.7451 9.49556 12.658 9.44863 12.5809 9.39668L12.5725 9.38998C12.4937 9.33635 12.4217 9.27769 12.3563 9.21233C12.2876 9.14362 12.2256 9.06988 12.1719 8.98777L12.1686 8.98274C12.1166 8.90397 12.0714 8.82018 12.0345 8.72968C11.9977 8.64086 11.9692 8.54701 11.9491 8.45316C11.9306 8.35931 11.9206 8.26211 11.9206 8.16491C11.9206 8.06771 11.9306 7.96883 11.9491 7.87665C11.9692 7.7828 11.996 7.68896 12.0345 7.60013C12.0714 7.50964 12.1183 7.42249 12.1719 7.34372C12.2273 7.25993 12.2893 7.18619 12.3563 7.11915C12.4233 7.05212 12.4987 6.99011 12.5809 6.93481C12.6613 6.88118 12.7468 6.83593 12.8373 6.79571C12.9261 6.75884 13.0199 6.73035 13.1138 6.71192C13.2127 6.69348 13.3099 6.68343 13.4071 6.68343ZM2.96129 7.03369V12.0597C2.96129 12.3295 3.01492 12.5876 3.11212 12.8239C3.21435 13.0685 3.3635 13.2898 3.54785 13.4758C3.73387 13.6618 3.95509 13.811 4.19977 13.9115C4.43439 14.0087 4.69248 14.0623 4.96397 14.0623H15.0796C15.3494 14.0623 15.6075 14.0087 15.8438 13.9115C16.0885 13.8093 16.3097 13.6601 16.4957 13.4758C16.6818 13.2898 16.8309 13.0685 16.9315 12.8239C17.0287 12.5892 17.0823 12.3312 17.0823 12.0597V6.43875C17.0823 6.16893 17.0287 5.90917 16.9315 5.67454C16.8292 5.42986 16.6801 5.20865 16.4957 5.02262C16.3097 4.8366 16.0885 4.68745 15.8438 4.58689C15.6092 4.48969 15.3511 4.43606 15.0796 4.43606H4.96564C4.69583 4.43606 4.43774 4.48969 4.20144 4.58689C3.95676 4.68912 3.73555 4.83828 3.54952 5.02262C3.3635 5.20865 3.21435 5.42986 3.11379 5.67454C3.01659 5.90917 2.96296 6.16725 2.96296 6.43875L2.96129 7.03369ZM2.31104 7.35713H1.15468C1.08597 7.35713 1.02061 7.37054 0.961957 7.394C0.89995 7.42081 0.844646 7.45768 0.797721 7.50461L0.791017 7.50964C0.747444 7.55489 0.710575 7.60851 0.687112 7.66717C0.661974 7.72583 0.650243 7.79118 0.650243 7.8599V10.9402C0.650243 11.0089 0.66365 11.0742 0.687112 11.1329C0.713927 11.1949 0.750796 11.2502 0.797721 11.2971C0.888219 11.3876 1.01391 11.4446 1.15301 11.4446H2.31104V7.35713ZM18.8503 7.35713H17.7342V11.4446H18.8503C18.9191 11.4446 18.9844 11.4312 19.0431 11.4077C19.1051 11.3809 19.1604 11.3441 19.2073 11.2971C19.2542 11.2502 19.2928 11.1949 19.3179 11.1329C19.3431 11.0742 19.3548 11.0089 19.3548 10.9402V7.86157C19.3548 7.79286 19.3414 7.7275 19.3179 7.66884C19.2911 7.60684 19.2542 7.55153 19.2073 7.50461C19.1604 7.45768 19.1051 7.41914 19.0431 7.394C18.9844 7.37221 18.9191 7.35713 18.8503 7.35713Z" fill="#292D32"/>
</svg>
