<svg width="20" height="21" viewBox="0 0 20 21" fill="none" xmlns="http://www.w3.org/2000/svg">
<path d="M2.99805 15V7.14116C3.87305 0.769877 13.9355 -2.68385 16.998 7.14116V15" stroke="#292D32" stroke-width="1.3" stroke-linecap="round"/>
<path d="M1.02972 16C1.03059 16.6667 1.44508 18 3.09607 18C3.78398 18 5.15929 17.6 5.15719 16L5.15197 12M2.75096 10C2.06327 10.1667 1.02292 10.8 1.02449 12C1.02606 13.2 1.00628 15.3333 1.00715 16" stroke="#292D32" stroke-width="1.3" stroke-linecap="round"/>
<path d="M15.0297 16C15.0306 16.6667 15.4451 18 17.0961 18C17.784 18 19.1593 17.6 19.1572 16L19.152 12M16.751 10C16.0633 10.1667 15.0229 10.8 15.0245 12C15.0261 13.2 15.0063 15.3333 15.0072 16" stroke="#292D32" stroke-width="1.3" stroke-linecap="round"/>
<path d="M16.998 18C16.7951 18.6667 15.4763 20 11.8241 20H9.99805C9.99805 19.5556 10.2415 18.6667 11.2154 18.6667H12.4328" stroke="#292D32" stroke-width="1.3" stroke-linecap="round"/>
</svg>
