<svg width="19" height="20" viewBox="0 0 19 20" fill="none" xmlns="http://www.w3.org/2000/svg">
<path d="M1.01191 15.2185L0.999149 18.7462C4.68638 18.7595 5.42393 18.7345 5.42393 18.7345L5.4383 14.7594C4.50084 12.966 2.5862 14.9259 1.01191 15.2185Z" stroke="#292D32" stroke-width="1.2" stroke-linejoin="round"/>
<path d="M15.9575 3.22125L15.5518 3.5134C16.8161 5.26937 16.8161 7.73084 15.5518 9.4868L15.9575 9.77895L15.5521 9.48631C15.548 9.49202 15.5448 9.49509 15.5431 9.49655C15.5414 9.49801 15.5404 9.49856 15.54 9.49875C15.5398 9.49888 15.5378 9.5 15.5321 9.5C15.5316 9.5 15.5312 9.49999 15.531 9.49997C15.5308 9.49995 15.5307 9.49994 15.5309 9.49997C15.5313 9.50002 15.5313 9.50007 15.5308 9.4999C15.5304 9.49975 15.5262 9.4983 15.5182 9.4931C15.5103 9.48527 15.5031 9.47292 15.5007 9.45577C15.498 9.43612 15.503 9.42078 15.5106 9.41039L15.5106 9.41039L15.5118 9.40876C16.7515 7.69396 16.7515 5.30624 15.5118 3.59144L15.5118 3.59143L15.5106 3.58981C15.503 3.57942 15.498 3.56408 15.5007 3.54443C15.5035 3.52447 15.5128 3.51101 15.5222 3.50361C15.5258 3.50079 15.5276 3.50033 15.528 3.50024L15.528 3.50023C15.5287 3.50006 15.53 3.49984 15.5322 3.50017C15.5344 3.5005 15.5374 3.5014 15.5408 3.50345C15.5439 3.50535 15.5485 3.50888 15.5535 3.51582L15.9575 3.22125ZM15.9575 3.22125C17.3475 5.15172 17.3475 7.84848 15.9575 9.77895C15.8512 9.92632 15.6952 10 15.5321 10C15.4186 10 15.3122 9.96316 15.2129 9.88948L15.1066 3.88439C14.9293 3.64124 14.9789 3.29493 15.2129 3.11072C15.447 2.92652 15.7803 2.9781 15.9575 3.22125Z" fill="#292D32" stroke="#292D32"/>
<path d="M17.109 1.22779L16.7209 1.54312C19.093 4.4621 19.093 8.5381 16.7209 11.4571L16.7156 11.4637L16.7105 11.4704C16.7092 11.4722 16.7034 11.479 16.687 11.4863C16.6697 11.494 16.645 11.5 16.6162 11.5C16.5892 11.5 16.5627 11.4943 16.5285 11.4731C16.5061 11.4558 16.5014 11.4398 16.5004 11.4333C16.4997 11.4292 16.5 11.4258 16.5008 11.4229C16.5015 11.4203 16.5034 11.4149 16.51 11.4068L16.5116 11.4048C18.8536 8.52055 18.8536 4.47966 16.5116 1.59536L16.5116 1.59536L16.51 1.59345C16.5034 1.58535 16.5015 1.57987 16.5008 1.57731C16.5 1.57439 16.4997 1.57105 16.5004 1.56691C16.5014 1.55997 16.5068 1.54221 16.5333 1.52366C16.5584 1.50609 16.5948 1.49595 16.6362 1.50149C16.6779 1.50707 16.7069 1.52605 16.7224 1.54487L17.109 1.22779ZM17.109 1.22779C16.9036 0.977449 16.5176 0.924346 16.2466 1.114C15.9756 1.30365 15.9181 1.66019 16.1234 1.91053L16.2466 11.8862C16.3616 11.9621 16.4848 12 16.6162 12C16.8051 12 16.994 11.9241 17.109 11.7724C19.6303 8.66972 19.6303 4.33049 17.109 1.22779Z" fill="#292D32" stroke="#292D32"/>
<path d="M8.70849 12.883L8.7069 12.8822L5.88564 11.3925L5.88568 11.3924L5.87775 11.3884C5.61911 11.2577 5.32002 11.18 5.01449 11.18H3.62319C2.52286 11.18 1.74876 10.9244 1.25695 10.51C0.778797 10.1071 0.5 9.49722 0.5 8.62729V5.3711C0.5 4.50116 0.778797 3.89124 1.25695 3.48838C1.74876 3.07401 2.52286 2.81842 3.62319 2.81842H5.00483C5.31035 2.81842 5.60945 2.74072 5.86809 2.60997L5.86812 2.61004L5.87598 2.6059L8.69624 1.11672C8.6964 1.11663 8.69656 1.11655 8.69672 1.11646C10.0213 0.42098 11.2228 0.335565 12.1172 0.752719C12.9861 1.15798 13.5 2.00411 13.5 3.26271V10.7275C13.5 11.9763 12.9776 12.8326 12.1156 13.2383L12.1155 13.2381L12.1057 13.2431C11.7611 13.4146 11.3567 13.5 10.9179 13.5C10.2521 13.5 9.49178 13.3002 8.70849 12.883ZM6.17919 11.2496L6.18199 11.2511L9.00325 12.7408L9.00375 12.7411C9.9813 13.2558 11.043 13.4699 11.8454 13.0931C12.6818 12.7003 13.0604 11.7716 13.0604 10.752V3.27085C13.0604 2.24762 12.6843 1.31358 11.8428 0.928477C11.043 0.554381 9.98426 0.757327 9.00281 1.28224L6.17395 2.76273L6.17391 2.76265L6.1653 2.76737C5.83214 2.95015 5.42389 3.04763 5.00483 3.04763H3.62319C2.81983 3.04763 2.12998 3.18726 1.6416 3.59874C1.13241 4.02775 0.949275 4.65759 0.949275 5.37924V8.63543C0.949275 9.35707 1.13241 9.98692 1.6416 10.4159C2.12998 10.8274 2.81983 10.967 3.62319 10.967H5.00483C5.4317 10.967 5.83258 11.0638 6.17919 11.2496Z" fill="#292D32" stroke="#292D32"/>
</svg>
