<svg width="21" height="21" viewBox="0 0 21 21" fill="none" xmlns="http://www.w3.org/2000/svg">
<path d="M10.2639 6.81068L10.4993 11.8125L10.7344 6.81068C10.7358 6.7787 10.7307 6.74677 10.7194 6.71682C10.7081 6.68688 10.6908 6.65956 10.6686 6.63652C10.6464 6.61349 10.6197 6.59523 10.5901 6.58286C10.5606 6.57049 10.5289 6.56427 10.4969 6.56459C10.4653 6.56488 10.434 6.57155 10.405 6.58419C10.376 6.59683 10.3499 6.61518 10.3281 6.63815C10.3064 6.66112 10.2895 6.68824 10.2785 6.71788C10.2674 6.74752 10.2625 6.77908 10.2639 6.81068Z" stroke="white" stroke-width="2" stroke-linecap="round" stroke-linejoin="round"/>
<path d="M10.5 15.0901C10.3378 15.0901 10.1792 15.042 10.0443 14.9518C9.90936 14.8617 9.80422 14.7336 9.74213 14.5837C9.68004 14.4338 9.6638 14.2689 9.69545 14.1097C9.7271 13.9506 9.80523 13.8045 9.91995 13.6897C10.0347 13.575 10.1808 13.4969 10.34 13.4652C10.4991 13.4336 10.664 13.4498 10.8139 13.5119C10.9638 13.574 11.0919 13.6791 11.1821 13.814C11.2722 13.9489 11.3203 14.1075 11.3203 14.2698C11.3203 14.4873 11.2339 14.696 11.08 14.8498C10.9262 15.0037 10.7176 15.0901 10.5 15.0901Z" fill="white"/>
<path d="M18.375 10.5C18.375 6.15234 14.8477 2.625 10.5 2.625C6.15234 2.625 2.625 6.15234 2.625 10.5C2.625 14.8477 6.15234 18.375 10.5 18.375C14.8477 18.375 18.375 14.8477 18.375 10.5Z" stroke="white" stroke-width="2" stroke-miterlimit="10"/>
</svg>
