<svg width="25" height="25" viewBox="0 0 25 25" fill="none" xmlns="http://www.w3.org/2000/svg">
<path d="M18.7318 19.5049C18.0039 18.5412 17.0622 17.7597 15.9809 17.222C14.8996 16.6842 13.7082 16.4048 12.5005 16.4059C11.2929 16.4048 10.1014 16.6842 9.02012 17.222C7.93881 17.7597 6.99713 18.5412 6.26927 19.5049M18.7318 19.5049C20.1521 18.2416 21.1538 16.5763 21.6059 14.73C22.0581 12.8837 21.9383 10.9435 21.2625 9.16686C20.5866 7.39018 19.3867 5.86092 17.8218 4.78188C16.2568 3.70284 14.4009 3.125 12.5 3.125C10.5991 3.125 8.74316 3.70284 7.17823 4.78188C5.61331 5.86092 4.41337 7.39018 3.73754 9.16686C3.06171 10.9435 2.94193 12.8837 3.39408 14.73C3.84624 16.5763 4.84896 18.2416 6.26927 19.5049M18.7318 19.5049C17.0172 21.0343 14.798 21.878 12.5005 21.8747C10.2026 21.8782 7.9841 21.0345 6.26927 19.5049M15.6255 10.1559C15.6255 10.9847 15.2963 11.7796 14.7102 12.3657C14.1242 12.9517 13.3293 13.2809 12.5005 13.2809C11.6717 13.2809 10.8769 12.9517 10.2908 12.3657C9.70476 11.7796 9.37552 10.9847 9.37552 10.1559C9.37552 9.32714 9.70476 8.53229 10.2908 7.94623C10.8769 7.36018 11.6717 7.03094 12.5005 7.03094C13.3293 7.03094 14.1242 7.36018 14.7102 7.94623C15.2963 8.53229 15.6255 9.32714 15.6255 10.1559Z" stroke="#FF4E00" stroke-width="1.5" stroke-linecap="round" stroke-linejoin="round"/>
</svg>
