<svg width="13" height="13" viewBox="0 0 13 13" fill="none" xmlns="http://www.w3.org/2000/svg">
<path d="M6.5 13C10.0898 13 13 10.0898 13 6.5C13 2.91016 10.0898 0 6.5 0C2.91016 0 0 2.91016 0 6.5C0 10.0898 2.91016 13 6.5 13Z" fill="url(#paint0_linear_45_4595)"/>
<path d="M2.42077 6.81789C3.18062 6.39935 4.02881 6.05003 4.82133 5.69892C6.18476 5.12383 7.5536 4.55871 8.93626 4.03259C9.20528 3.94294 9.68864 3.85527 9.73603 4.25394C9.71009 4.81825 9.60332 5.37925 9.53009 5.94026C9.34422 7.17396 9.12939 8.40343 8.9199 9.63307C8.84773 10.0427 8.33463 10.2547 8.00633 9.99257C7.21734 9.45963 6.42228 8.93188 5.64336 8.38659C5.38821 8.12732 5.62481 7.755 5.85269 7.56986C6.50252 6.92945 7.19169 6.38534 7.80756 5.71184C7.97369 5.31065 7.48283 5.64876 7.32093 5.75235C6.4313 6.36541 5.56344 7.0159 4.62549 7.5547C4.14638 7.81843 3.58798 7.59305 3.10909 7.44587C2.67971 7.2681 2.05054 7.08897 2.42077 6.81789Z" fill="white"/>
<defs>
<linearGradient id="paint0_linear_45_4595" x1="4.87576" y1="0.5421" x2="1.62576" y2="8.125" gradientUnits="userSpaceOnUse">
<stop stop-color="#37AEE2"/>
<stop offset="1" stop-color="#1E96C8"/>
</linearGradient>
</defs>
</svg>
