<svg width="13" height="13" viewBox="0 0 13 13" fill="none" xmlns="http://www.w3.org/2000/svg">
<path d="M6.5 13C10.0898 13 13 10.0898 13 6.5C13 2.91016 10.0898 0 6.5 0C2.91016 0 0 2.91016 0 6.5C0 10.0898 2.91016 13 6.5 13Z" fill="#25D366"/>
<path fill-rule="evenodd" clip-rule="evenodd" d="M6.71424 10.1163H6.71264C6.06576 10.1161 5.43014 9.95374 4.86559 9.64581L2.81665 10.1833L3.36498 8.18044C3.02674 7.59427 2.84877 6.92938 2.84904 6.24815C2.84991 4.1171 4.58378 2.3833 6.71419 2.3833C7.74815 2.38375 8.7186 2.78628 9.44833 3.51685C10.1781 4.2474 10.5797 5.21847 10.5793 6.25121C10.5785 8.3818 8.84527 10.1154 6.71424 10.1163ZM4.96054 8.94611L5.07784 9.01571C5.57108 9.30843 6.13647 9.46329 6.71294 9.46351H6.71424C8.48487 9.46351 9.926 8.02235 9.9267 6.25099C9.92705 5.39259 9.59323 4.58548 8.98669 3.97824C8.38016 3.37101 7.57357 3.03642 6.71549 3.03612C4.94348 3.03612 3.50235 4.47714 3.50164 6.24839C3.5014 6.85541 3.67124 7.44656 3.9928 7.95803L4.0692 8.07958L3.74466 9.26504L4.96054 8.94611ZM8.52918 7.08335C8.59653 7.1159 8.64203 7.13789 8.66145 7.17031C8.68558 7.21058 8.68558 7.40396 8.60514 7.62956C8.52463 7.85517 8.1388 8.06105 7.95325 8.08876C7.78688 8.11365 7.5763 8.12402 7.34496 8.05049C7.20469 8.00599 7.02483 7.94657 6.79441 7.84707C5.88904 7.45612 5.27717 6.57862 5.16153 6.41276C5.15343 6.40114 5.14777 6.39302 5.1446 6.38879L5.14384 6.38776C5.09273 6.31957 4.75027 5.86265 4.75027 5.38977C4.75027 4.9449 4.96877 4.71174 5.06936 4.60441C5.07627 4.59707 5.0826 4.5903 5.08827 4.5841C5.1768 4.48741 5.28142 4.46322 5.3458 4.46322C5.41018 4.46322 5.47464 4.46382 5.53092 4.46666C5.53785 4.46701 5.54508 4.46696 5.55253 4.46691C5.60881 4.46658 5.67898 4.46617 5.7482 4.63244C5.77483 4.69641 5.8138 4.79128 5.85489 4.89133C5.93798 5.09364 6.02982 5.31719 6.04596 5.34952C6.07012 5.39787 6.0862 5.45426 6.054 5.51871C6.04918 5.52838 6.04471 5.53751 6.04043 5.54623C6.01625 5.5956 5.99848 5.6319 5.95742 5.67983C5.94131 5.69866 5.92463 5.71897 5.90794 5.73928C5.87471 5.77974 5.84151 5.82021 5.81258 5.84902C5.76421 5.89718 5.71389 5.94942 5.77022 6.04611C5.82656 6.1428 6.02039 6.45905 6.30748 6.71515C6.61612 6.99042 6.88435 7.10677 7.02031 7.16573C7.04685 7.17727 7.06836 7.18659 7.08414 7.1945C7.18067 7.24284 7.237 7.23474 7.29336 7.17031C7.3497 7.10585 7.53478 6.88829 7.59913 6.79163C7.66351 6.695 7.72792 6.71108 7.81642 6.74329C7.90499 6.77557 8.37978 7.00916 8.47636 7.05751C8.49521 7.06693 8.51284 7.07546 8.52918 7.08335Z" fill="#FDFDFD"/>
</svg>
